Inverse Dynamics Generalized Forces																																												
version=1																																												
nRows=33																																												
nColumns=45																																												
inDegrees=no																																												
endheader																																												
time	pelvis_tilt_moment	pelvis_list_moment	pelvis_rotation_moment	pelvis_tx_force	pelvis_ty_force	pelvis_tz_force	hip_flexion_r_moment	hip_adduction_r_moment	hip_rotation_r_moment	hip_flexion_l_moment	hip_adduction_l_moment	hip_rotation_l_moment	lumbar_extension_moment	lumbar_bending_moment	lumbar_rotation_moment	knee_angle_r_moment	knee_adduction_r_moment	knee_angle_r_beta_force	knee_angle_l_moment	knee_adduction_l_moment	knee_angle_l_beta_force	thoracic_extension_moment	thoracic_bending_moment	thoracic_rotation_moment	ankle_angle_r_moment	ankle_angle_l_moment	arm_flex_r_moment	arm_add_r_moment	arm_rot_r_moment	arm_flex_l_moment	arm_add_l_moment	arm_rot_l_moment	subtalar_angle_r_moment	subtalar_angle_l_moment	elbow_flex_r_moment	elbow_flex_l_moment	mtp_angle_r_moment	mtp_angle_l_moment	pro_sup_r_moment	pro_sup_l_moment	wrist_flex_r_moment	wrist_dev_r_moment	wrist_flex_l_moment	wrist_dev_l_moment
0.713071428	0	0	0	0	0	0	20.66410542	-2.935983855	-3.461043366	-33.01738838	-69.28162356	22.34859327	18.90290879	5.561835107	-10.57743015	-6.839615592	0	0	-62.8363909	0	0	0	0	0	1.804429365	-29.05960778	-1.308657421	-2.689625761	-0.279041426	1.376638856	-1.15891274	-0.226082588	0.181962618	17.60569591	0.979894335	1.257902408	-0.359636274	-0.074822494	0	0	0	0	0	0
0.723714286	0	0	0	0	0	0	19.7475283	-5.363203336	-2.456793963	-28.76264049	-72.21992913	22.08718976	19.25894908	4.445894893	-9.747497665	-7.017471361	0	0	-61.32264217	0	0	0	0	0	3.039005378	-35.04103721	-1.287893829	-2.821015001	-0.335039138	1.314435994	-1.12075362	-0.221962599	-0.198887238	18.3040779	1.036019015	1.274011885	-0.386973158	-0.05902479	0	0	0	0	0	0
0.734357143	0	0	0	0	0	0	19.36174034	-6.852946294	-1.615404736	-24.61425265	-74.09421916	21.24942212	18.809055	3.111972466	-8.462617796	-7.417067897	0	0	-58.45979849	0	0	0	0	0	3.494656505	-40.76542908	-1.235142693	-2.87036144	-0.377834177	1.207644887	-1.122794453	-0.221850859	-0.464282561	18.70775198	1.071929199	1.270405628	-0.392395324	-0.046545416	0	0	0	0	0	0
0.745	0	0	0	0	0	0	18.83000606	-7.20950089	-1.095053161	-20.78087479	-74.93639623	19.92921829	17.44681272	1.808122832	-6.823682094	-7.58174825	0	0	-54.46374047	0	0	0	0	0	3.373069132	-46.08508083	-1.166679351	-2.831853071	-0.400202785	1.051665154	-1.171427921	-0.226084684	-0.588278975	18.83769289	1.076879728	1.242372676	-0.374861022	-0.037803248	0	0	0	0	0	0
0.755642857	0	0	0	0	0	0	17.66446999	-6.529992739	-0.949634754	-17.41285615	-74.76708096	18.23894835	15.18579425	0.71760806	-5.002482621	-7.233176135	0	0	-49.58130727	0	0	0	0	0	2.851476734	-50.84110493	-1.092992868	-2.716735488	-0.401507696	0.852027864	-1.268943569	-0.234519103	-0.576840662	18.72168065	1.046284556	1.189145091	-0.336704635	-0.032754883	0	0	0	0	0	0
0.766285714	0	0	0	0	0	0	15.71479449	-5.142026085	-1.119896801	-14.58744433	-73.63494234	16.29833539	12.17017053	-0.081604467	-3.196535839	-6.336862486	0	0	-44.07656862	0	0	0	0	0	2.105940171	-54.92160137	-1.012446775	-2.550165012	-0.387121663	0.623781253	-1.408284221	-0.24615007	-0.465808626	18.39726578	0.984345448	1.114772724	-0.283297843	-0.030968464	0	0	0	0	0	0
0.776928571	0	0	0	0	0	0	13.17927258	-3.489654656	-1.462651036	-12.27649175	-71.64438966	14.22430339	8.658435732	-0.610923296	-1.580199396	-5.067150545	0	0	-38.23914917	0	0	0	0	0	1.311999588	-58.26846192	-0.912231132	-2.364213621	-0.365740121	0.386835619	-1.56983676	-0.258740028	-0.308908296	17.90874928	0.903899753	1.027279894	-0.221945364	-0.031741325	0	0	0	0	0	0
0.787571428	0	0	0	0	0	0	10.48551958	-2.010138721	-1.80286968	-10.35709816	-68.9506195	12.12151564	4.989034938	-0.954062736	-0.266238954	-3.700768634	0	0	-32.37625544	0	0	0	0	0	0.61813341	-60.85856519	-0.773875747	-2.188373555	-0.345665262	0.160954437	-1.725302758	-0.269187448	-0.160050356	17.2979387	0.824074148	0.936498811	-0.160368487	-0.034248613	0	0	0	0	0	0
0.798214286	0	0	0	0	0	0	8.107401948	-1.031963854	-1.987876976	-8.677377846	-65.74364596	10.08007775	1.532648131	-1.212295112	0.716066467	-2.497881896	0	0	-26.7664296	0	0	0	0	0	0.120140586	-62.73396557	-0.579495806	-2.041284711	-0.331807975	-0.036594903	-1.847335099	-0.274713477	-0.059792245	16.60755017	0.766483509	0.851922563	-0.105246946	-0.03768918	0	0	0	0	0	0
0.808857143	0	0	0	0	0	0	6.404280804	-0.716421225	-1.927484649	-7.110424421	-62.24263816	8.174747239	-1.366056848	-1.470530299	1.419516002	-1.623421821	0	0	-21.63374966	0	0	0	0	0	-0.150655454	-63.96216165	-0.316498161	-1.928029526	-0.324893651	-0.191387091	-1.918737629	-0.27406223	-0.028222145	15.87081867	0.749868628	0.781368121	-0.061218675	-0.041391899	0	0	0	0	0	0
0.8195	0	0	0	0	0	0	5.528738903	-1.049465462	-1.611754811	-5.59342548	-58.67905103	6.465565287	-3.448038974	-1.780521804	1.948471065	-1.119397058	0	0	-17.12618176	0	0	0	0	0	-0.221160498	-64.6355831	0.019849987	-1.844355624	-0.323031624	-0.293482776	-1.935646759	-0.267688652	-0.063121289	15.11540918	0.783998938	0.730038025	-0.030517944	-0.044867594	0	0	0	0	0	0
0.830142857	0	0	0	0	0	0	5.430697353	-1.87959333	-1.099913312	-4.125488169	-55.26294144	4.99000072	-4.585500972	-2.15567436	2.411254216	-0.929529378	0	0	-13.31856972	0	0	0	0	0	-0.156621552	-64.83601335	0.425430735	-1.784101278	-0.324061302	-0.341576355	-1.903884766	-0.256734321	-0.144859862	14.35841515	0.866123372	0.699553633	-0.013188435	-0.047817542	0	0	0	0	0	0
0.840785714	0	0	0	0	0	0	5.923120894	-2.990078435	-0.489801233	-2.750998551	-52.16205716	3.757856985	-4.801285097	-2.569103076	2.885643099	-0.947138747	0	0	-10.2043833	0	0	0	0	0	-0.030356079	-64.67709491	0.887148546	-1.74408087	-0.326674276	-0.346371082	-1.832745144	-0.241783598	-0.246132116	13.61491962	0.982939411	0.687440017	-0.007659472	-0.050114181	0	0	0	0	0	0
0.851428571	0	0	0	0	0	0	6.769328674	-4.167508373	0.118358349	-1.525939207	-49.46752339	2.750222304	-4.258228922	-2.953864031	3.415578644	-1.060764639	0	0	-7.715984308	0	0	0	0	0	0.101206885	-64.29010871	1.383854591	-1.724484352	-0.329975389	-0.329166102	-1.731306922	-0.222554113	-0.343090414	12.89826659	1.116869276	0.687673339	-0.011453913	-0.051759265	0	0	0	0	0	0
0.862071428	0	0	0	0	0	0	7.75139792	-5.25197478	0.646589642	-0.487473946	-47.18465306	1.927479649	-3.220766894	-3.213158972	4.025066263	-1.182613509	0	0	-5.754886539	0	0	0	0	0	0.216436825	-63.8037026	1.889116771	-1.727361907	-0.332824096	-0.315128104	-1.608816585	-0.198694996	-0.423446339	12.22214318	1.252364818	0.692227245	-0.021848151	-0.052825368	0	0	0	0	0	0
0.872714285	0	0	0	0	0	0	8.70749829	-6.150135192	1.05005547	0.353105899	-45.26728573	1.242183554	-1.99751034	-3.248647894	4.723067212	-1.256452185	0	0	-4.205031496	0	0	0	0	0	0.326743252	-63.35879808	2.376029857	-1.755508201	-0.334038062	-0.324019931	-1.477098041	-0.170999636	-0.48748517	11.60469188	1.379263195	0.693209829	-0.036369189	-0.053399583	0	0	0	0	0	0
0.883357143	0	0	0	0	0	0	9.532798102	-6.822979256	1.312878303	1.024242329	-43.66212471	0.652103757	-0.880894686	-3.001912145	5.492634039	-1.251279554	0	0	-2.95939203	0	0	0	0	0	0.472503294	-63.08070447	2.822665578	-1.81140482	-0.33320823	-0.362914044	-1.351653977	-0.142111912	-0.545572905	11.06388862	1.492988732	0.685085123	-0.053076873	-0.053550547	0	0	0	0	0	0
0.894	0	0	0	0	0	0	10.14761866	-7.258694087	1.437005831	1.600922446	-42.3447057	0.127674568	-0.09912539	-2.487108436	6.281400426	-1.136542753	0	0	-1.930091876	0	0	0	0	0	0.700370331	-63.08046134	3.215350683	-1.895478194	-0.331223537	-0.425341719	-1.248952152	-0.116014558	-0.611042031	10.6141088	1.592576625	0.666215866	-0.0706362	-0.053325452	0	0	0	0	0	0
0.904642857	0	0	0	0	0	0	10.44780842	-7.442942747	1.430938343	2.216681203	-41.32560514	-0.347894269	0.213508736	-1.792851266	7.010796713	-0.853130556	0	0	-1.079658156	0	0	0	0	0	1.040813131	-63.4121634	3.547957038	-2.004308862	-0.329964056	-0.497323259	-1.180667993	-0.096418939	-0.693481202	10.2574956	1.677907347	0.639000435	-0.08822014	-0.052767849	0	0	0	0	0	0
0.915285714	0	0	0	0	0	0	10.26826102	-7.327279513	1.304930204	3.037444415	-40.63064889	-0.784957619	0.028905497	-1.050850727	7.6020936	-0.296756252	0	0	-0.404918138	0	0	0	0	0	1.482511221	-64.09329548	3.818600855	-2.129793097	-0.331287502	-0.565380058	-1.149143387	-0.085216539	-0.788708431	9.984719007	1.747983193	0.608448758	-0.105295898	-0.051940958	0	0	0	0	0	0
0.925928571	0	0	0	0	0	0	9.368749353	-6.823704898	1.07188456	4.230020591	-40.2694423	-1.19128783	-0.577380485	-0.387702074	8.00321584	0.675046514	0	0	0.069240923	0	0	0	0	0	1.975979164	-65.09945706	4.026810242	-2.25949697	-0.33587422	-0.62132454	-1.147559029	-0.082091966	-0.87948243	9.778182008	1.8012519	0.579813783	-0.121354586	-0.050944887	0	0	0	0	0	0
0.936571428	0	0	0	0	0	0	7.454332938	-5.834803083	0.75706263	5.926998111	-40.23409961	-1.573949449	-1.442032899	0.117357523	8.201961364	2.213654685	0	0	0.304807989	0	0	0	0	0	2.451495882	-66.37450229	4.172747785	-2.378089421	-0.342573346	-0.662863093	-1.164218308	-0.085267081	-0.943332994	9.615622182	1.837147571	0.556377814	-0.135653521	-0.049922591	0	0	0	0	0	0
0.947214285	0	0	0	0	0	0	4.227545419	-4.31490302	0.411089425	8.176341071	-40.50475297	-1.939526428	-2.344543993	0.451048978	8.220908314	4.439233788	0	0	0.294262687	0	0	0	0	0	2.842288811	-67.87831843	4.258136262	-2.470021795	-0.348641141	-0.691806697	-1.18812662	-0.092635433	-0.962768015	9.477607303	1.857314989	0.538337555	-0.147044096	-0.04905275	0	0	0	0	0	0
0.957857143	0	0	0	0	0	0	-0.528525822	-2.341173675	0.116481228	10.93062694	-41.05774331	-2.292167994	-3.053036708	0.657010444	8.098019325	7.401826347	0	0	0.068726551	0	0	0	0	0	3.097734342	-69.60024385	4.287836346	-2.523404834	-0.350838729	-0.71172758	-1.213286849	-0.10254321	-0.931138513	9.352931889	1.865648281	0.52319496	-0.153945604	-0.048531295	0	0	0	0	0	0
0.9685	0	0	0	0	0	0	-6.842018027	-0.154920546	-0.027145765	14.05055407	-41.86462052	-2.637125785	-3.377793501	0.809859116	7.862893699	11.04654286	0	0	-0.294600013	0	0	0	0	0	3.189770746	-71.57179559	4.270592666	-2.533876438	-0.34690607	-0.726582145	-1.239561696	-0.113612466	-0.85408518	9.237068488	1.866987832	0.507463715	-0.154496129	-0.048542613	0	0	0	0	0	0
0.979142857	0	0	0	0	0	0	-14.45987477	1.864048366	0.060535403	17.3514565	-42.88742361	-2.977652862	-3.215730327	0.988725724	7.521437188	15.20359415	0	0	-0.711903684	0	0	0	0	0	3.108084754	-73.827771	4.2175386	-2.506334994	-0.336599064	-0.740584658	-1.269699667	-0.123772349	-0.748500334	9.12742178	1.865035622	0.488730196	-0.146884749	-0.049207473	0	0	0	0	0	0
0.989785714	0	0	0	0	0	0	-22.80722784	3.311336002	0.401830591	20.63036543	-44.07886613	-3.316183847	-2.569242709	1.25957769	7.057514736	19.60518691	0	0	-1.106022075	0	0	0	0	0	2.846177243	-76.38995917	4.139012434	-2.453126607	-0.321629691	-0.757516976	-1.305284363	-0.129809628	-0.634556315	9.016170943	1.860944131	0.466679852	-0.129827606	-0.050491906	0	0	0	0	0	0
1.000428571	0	0	0	0	0	0	-31.04469151	3.919131882	0.94298842	23.70773062	-45.37967649	-3.644790888	-1.535258842	1.664952157	6.449826544	23.92126596	0	0	-1.440591675	0	0	0	0	0	2.399928226	-79.23174156	4.042378668	-2.389373069	-0.304639669	-0.77836423	-1.344849625	-0.128348262	-0.528884783	8.890274119	1.853748098	0.442703377	-0.103086394	-0.052101887	0	0	0	0	0	0
1.011071428	0	0	0	0	0	0	-38.22860988	3.681230647	1.572908032	26.46674823	-46.72403238	-3.945441553	-0.273389485	2.217014873	5.695503125	27.80637009	0	0	-1.746286077	0	0	0	0	0	1.766194579	-82.25300642	3.932719599	-2.327703963	-0.288042711	-0.799377846	-1.384338587	-0.117395712	-0.437074668	8.729552698	1.842052675	0.419320978	-0.067897921	-0.053430604	0	0	0	0	0	0
1.021714285	0	0	0	0	0	0	-43.53219887	2.867713059	2.166379196	28.86649137	-48.01840749	-4.192326105	1.035943312	2.893487896	4.831158262	30.94100121	0	0	-2.097292696	0	0	0	0	0	0.965287617	-85.30718215	3.815304778	-2.27472271	-0.27340226	-0.813295477	-1.418305488	-0.097136767	-0.35724893	8.512766721	1.825402778	0.400265921	-0.027156354	-0.053603158	0	0	0	0	0	0
1.032357143	0	0	0	0	0	0	-46.46847833	1.9127589	2.632555042	30.95010666	-49.14782778	-4.353365289	2.235755876	3.638477212	3.93939989	33.0859882	0	0	-2.601196933	0	0	0	0	0	0.052343999	-88.21373522	3.69722697	-2.230674916	-0.261361087	-0.813676892	-1.441575991	-0.069824422	-0.282834653	8.225716701	1.804634516	0.390000951	0.014892682	-0.051630675	0	0	0	0	0	0
1.043	0	0	0	0	0	0	-47.05184665	1.203949839	2.94355312	32.8165801	-50.00775176	-4.404495951	3.232281565	4.374546006	3.125526852	34.15124954	0	0	-3.344317151	0	0	0	0	0	-0.875542787	-90.82276578	3.586459301	-2.192083761	-0.251820035	-0.799416759	-1.451688437	-0.039123429	-0.209413317	7.866318051	1.781560379	0.391511494	0.053790161	-0.046729738	0	0	0	0	0	0
1.053642857	0	0	0	0	0	0	-45.84742615	0.890082774	3.133237168	34.58253882	-50.5712625	-4.345834923	4.022947705	5.03805866	2.458425205	34.2911287	0	0	-4.346511607	0	0	0	0	0	-1.726940456	-93.08059019	3.487983366	-2.155272721	-0.244141707	-0.775545853	-1.450785507	-0.008659072	-0.13553193	7.450004672	1.75819916	0.403790024	0.086974561	-0.038861301	0	0	0	0	0	0
